<svg xmlns="http://www.w3.org/2000/svg" width="24" height="23" viewBox="0 0 24 23">
  <g fill="none">
    <circle cx="12.143" cy="11.339" r="11.29" fill="#000" fill-opacity=".5"/>
    <path fill="#FFF" fill-opacity=".75" d="M12.1421,6.30535 L12.1421,2.94965 L7.94744,7.14428 L12.1421,11.3389 L12.1421,7.9832 C13.4771,7.9832 14.7574,8.51352 15.7013,9.4575 C16.6453,10.4015 17.1756,11.6818 17.1756,13.0168 C17.1756,14.3517 16.6453,15.632 15.7013,16.576 C14.7574,17.52 13.4771,18.0503 12.1421,18.0503 C10.8071,18.0503 9.52679,17.52 8.58281,16.576 C7.63884,15.632 7.10852,14.3517 7.10852,13.0168 L5.43066,13.0168 C5.43066,14.7967 6.13776,16.5038 7.39639,17.7624 C8.65502,19.0211 10.3621,19.7282 12.1421,19.7282 C13.922,19.7282 15.6291,19.0211 16.8878,17.7624 C18.1464,16.5038 18.8535,14.7967 18.8535,13.0168 C18.8535,11.2368 18.1464,9.52971 16.8878,8.27108 C15.6291,7.01244 13.922,6.30535 12.1421,6.30535 L12.1421,6.30535 Z"/>
  </g>
</svg>
