<svg width="16" height="17" viewBox="0 0 16 17" fill="none" xmlns="http://www.w3.org/2000/svg">
<circle cx="7.92091" cy="8.53239" r="7.54902" fill="black" fill-opacity="0.5"/>
<path d="M6.8826 11.0115C6.84354 10.9333 6.8118 10.7942 6.78739 10.594C6.47244 10.9211 6.09647 11.0847 5.65946 11.0847C5.26883 11.0847 4.94779 10.9748 4.69632 10.7551C4.4473 10.5329 4.32279 10.2522 4.32279 9.91283C4.32279 9.50023 4.47904 9.1804 4.79154 8.95335C5.10648 8.72386 5.54837 8.60912 6.11722 8.60912H6.7764V8.29784C6.7764 8.06102 6.7056 7.87303 6.564 7.73387C6.42239 7.59227 6.21365 7.52147 5.93778 7.52147C5.69608 7.52147 5.49344 7.5825 5.32987 7.70457C5.16629 7.82664 5.0845 7.97435 5.0845 8.14769H4.40335C4.40335 7.94994 4.47293 7.75951 4.61209 7.5764C4.75369 7.39085 4.94412 7.24437 5.18338 7.13695C5.42508 7.02953 5.68997 6.97581 5.97806 6.97581C6.4346 6.97581 6.79227 7.09056 7.05106 7.32005C7.30985 7.5471 7.44412 7.86082 7.45389 8.26122V10.0849C7.45389 10.4487 7.50028 10.738 7.59305 10.9529V11.0115H6.8826ZM5.75833 10.4951C5.97073 10.4951 6.17215 10.4402 6.36258 10.3303C6.55301 10.2204 6.69095 10.0776 6.7764 9.90184V9.08885H6.24539C5.41531 9.08885 5.00028 9.33177 5.00028 9.81761C5.00028 10.03 5.07108 10.196 5.21268 10.3157C5.35428 10.4353 5.53616 10.4951 5.75833 10.4951ZM7.75111 8.9973C7.75111 8.38939 7.89515 7.90111 8.18324 7.53246C8.47132 7.16136 8.84852 6.97581 9.31483 6.97581C9.77869 6.97581 10.1461 7.13451 10.4171 7.45189V5.38646H11.0946V11.0115H10.4721L10.4391 10.5867C10.1681 10.9187 9.7909 11.0847 9.3075 11.0847C8.84852 11.0847 8.47376 10.8967 8.18324 10.5207C7.89515 10.1448 7.75111 9.65404 7.75111 9.04857V8.9973ZM8.4286 9.0742C8.4286 9.52342 8.52137 9.87498 8.70692 10.1289C8.89246 10.3828 9.14881 10.5098 9.47596 10.5098C9.90565 10.5098 10.2194 10.3169 10.4171 9.93114V8.11107C10.2145 7.73753 9.90321 7.55077 9.48328 7.55077C9.15125 7.55077 8.89246 7.67894 8.70692 7.93529C8.52137 8.19164 8.4286 8.57127 8.4286 9.0742Z" fill="#DCDCDC"/>
</svg>
